<svg id="Layer_1" data-name="Layer 1" xmlns="http://www.w3.org/2000/svg" viewBox="0 0 840.55 116.53"><title>Untitled-1</title><path d="M227.27,415.92V405.71l9-1.75V343l-9-1.75V331h26.32l37,58.94.35-.06V343l-10.85-1.75V331h35.19v10.27L306.16,343v72.95H289.71l-37.82-58.36-.35.06V404l10.92,1.75v10.21Z" transform="translate(-227.27 -324.88)"/><path d="M351.51,417.14a30.55,30.55,0,0,1-15.82-4,27.51,27.51,0,0,1-10.47-11,33.68,33.68,0,0,1-3.71-16v-2.34a38,38,0,0,1,3.5-16.66,27.81,27.81,0,0,1,9.89-11.44A26.64,26.64,0,0,1,350,351.61q8.58,0,14.41,3.39a21.76,21.76,0,0,1,8.87,9.74,35.61,35.61,0,0,1,3,15.41v9.27H339.19l-.11.35a18.87,18.87,0,0,0,2.07,7.39,12.51,12.51,0,0,0,4.87,5.07,14.88,14.88,0,0,0,7.64,1.84,31,31,0,0,0,8.73-1.19,34,34,0,0,0,7.91-3.53l4.61,10.5a32.85,32.85,0,0,1-9.84,5.22A41,41,0,0,1,351.51,417.14Zm-12.2-39h21.07v-1.51a19.24,19.24,0,0,0-1-6.63,8.6,8.6,0,0,0-3.26-4.29,10.21,10.21,0,0,0-5.81-1.51,9.14,9.14,0,0,0-5.72,1.78,11.7,11.7,0,0,0-3.65,4.87,25.72,25.72,0,0,0-1.78,7Z" transform="translate(-227.27 -324.88)"/><path d="M404.84,415.92l-14.7-51.47-7.71-1.4V352.78H413V363l-6.65,1.28,5.84,24.57,1.16,4.84h.35l1.58-4.84,12.95-36.06h11.44l12.55,36.53,1.63,5.13h.35l1.52-5.13,6.89-25L455.2,363V352.78h29.88v10.27l-7.35,1.4-16.05,51.47H447.32l-11.55-31.28-2-6.94h-.35l-2.05,7L420,415.92Z" transform="translate(-227.27 -324.88)"/><path d="M517.58,417.14a60.93,60.93,0,0,1-13.16-1.34,60.29,60.29,0,0,1-11.7-3.85l-.17-17.86H504.4l2.27,9.11a20.88,20.88,0,0,0,4.35,1.57,22.48,22.48,0,0,0,5.4.59c3.81,0,6.49-.63,8.05-1.87a5.77,5.77,0,0,0,2.33-4.67,5.86,5.86,0,0,0-2.48-4.64q-2.48-2-9.89-3.53-11.2-2.34-16.51-7.24a16.3,16.3,0,0,1-5.31-12.54,17.91,17.91,0,0,1,2.65-9.57,18.73,18.73,0,0,1,8.11-6.95q5.46-2.62,14-2.62a58.06,58.06,0,0,1,13,1.37,38.55,38.55,0,0,1,10,3.59l.18,17.27H528.73l-1.81-8.29a11.27,11.27,0,0,0-3.71-1.75,18.59,18.59,0,0,0-4.81-.58c-3,0-5.29.6-6.89,1.81a5.61,5.61,0,0,0-2.39,4.67,5.69,5.69,0,0,0,.85,3,7.75,7.75,0,0,0,3.35,2.63,36.61,36.61,0,0,0,7.3,2.33q11.73,2.69,17.1,7.15t5.36,12.52a17.76,17.76,0,0,1-6.39,14.24Q530.32,417.14,517.58,417.14Z" transform="translate(-227.27 -324.88)"/><path d="M549.56,415.92V405.71l6.07-.88,27-73.88H600.1l26.84,73.88,6.07.88v10.21H604.07V405.71l5.89-1L606.23,393H576.35l-3.74,11.68,5.9,1v10.21Zm30.81-35.48H602.2l-9.92-29.12-.82-2.57h-.35l-.87,2.74Z" transform="translate(-227.27 -324.88)"/><path d="M637.27,415.92V405.71l8.17-1.75V364.8l-9-1.75V352.78h24.91l.76,9a23,23,0,0,1,7.79-7.53,20.86,20.86,0,0,1,10.59-2.68q9.4,0,14.71,6t5.31,18.85V404l8.17,1.75v10.21H676.08V405.71l7.29-1.75V376.53q0-6.36-2.51-9t-7.47-2.65A12.7,12.7,0,0,0,667,366.4a13,13,0,0,0-4.52,4.41V404l6.89,1.75v10.21Z" transform="translate(-227.27 -324.88)"/><path d="M735.31,417.14q-9.4,0-14.94-5t-5.55-13.75a17.36,17.36,0,0,1,3.24-10.44,21.21,21.21,0,0,1,9.57-7.06,41.72,41.72,0,0,1,15.61-2.57h8.35v-4.67a10.36,10.36,0,0,0-2.66-7.38q-2.65-2.84-8-2.83a16.36,16.36,0,0,0-4.9.67,14.84,14.84,0,0,0-4,1.9l-1.35,8.34H718.5l-.23-16.4A53.42,53.42,0,0,1,729,353.36a44.33,44.33,0,0,1,12.9-1.75q12.38,0,19.55,5.75t7.18,16.43v26c0,.86,0,1.7,0,2.54a18.8,18.8,0,0,0,.2,2.42l6.6.94v10.21H754.33c-.43-1.09-.86-2.26-1.28-3.5a22.26,22.26,0,0,1-.94-3.74,23.86,23.86,0,0,1-7.15,6.16A19.38,19.38,0,0,1,735.31,417.14Zm4.55-12.6a15,15,0,0,0,6.77-1.61,12.55,12.55,0,0,0,5-4.23v-10h-8.41q-5.59,0-8.49,2.57a8,8,0,0,0-2.88,6.19,6.5,6.5,0,0,0,2.13,5.22A8.74,8.74,0,0,0,739.86,404.54Z" transform="translate(-227.27 -324.88)"/><path d="M780.59,415.92V405.71l8.23-1.75v-67l-9.11-1.76V324.88h26.15V404l8.23,1.75v10.21Z" transform="translate(-227.27 -324.88)"/><path d="M837.14,441.42a31.49,31.49,0,0,1-4.7-.38,36,36,0,0,1-4.7-1l1.93-12.49a20,20,0,0,0,2.45.35c.89.08,1.67.12,2.33.12a10.58,10.58,0,0,0,6.36-1.93,10.81,10.81,0,0,0,3.91-5.54l1.4-3.91L825,364.16l-7.76-1.11V352.78h33.49v10.27l-7.7,1.17L853,392.05l1.23,3.44h.35l11.72-31.39-7.52-1.05V352.78H890v10.27l-7.12,1-24.1,61.27a35.45,35.45,0,0,1-4.47,8,20.39,20.39,0,0,1-6.88,5.86A21.59,21.59,0,0,1,837.14,441.42Z" transform="translate(-227.27 -324.88)"/><path d="M896.07,415.92v-10l32.86-41.2h-17L910,375.48H897.48v-22.7h51.87v10.91l-31,40h17.85l2.51-11.61h12v23.81Z" transform="translate(-227.27 -324.88)"/><path d="M988.51,417.14a30.54,30.54,0,0,1-15.81-4,27.47,27.47,0,0,1-10.48-11,33.68,33.68,0,0,1-3.7-16v-2.34a37.87,37.87,0,0,1,3.5-16.66,27.74,27.74,0,0,1,9.89-11.44A26.63,26.63,0,0,1,987,351.61q8.58,0,14.42,3.39a21.81,21.81,0,0,1,8.87,9.74,35.62,35.62,0,0,1,3,15.41v9.27H976.2l-.12.35a18.87,18.87,0,0,0,2.07,7.39,12.58,12.58,0,0,0,4.87,5.07,14.92,14.92,0,0,0,7.65,1.84,30.94,30.94,0,0,0,8.72-1.19,33.84,33.84,0,0,0,7.91-3.53l4.61,10.5a32.79,32.79,0,0,1-9.83,5.22A41,41,0,0,1,988.51,417.14Zm-12.2-39h21.07v-1.51a19.25,19.25,0,0,0-1-6.63,8.56,8.56,0,0,0-3.27-4.29,10.19,10.19,0,0,0-5.81-1.51,9.11,9.11,0,0,0-5.71,1.78,11.62,11.62,0,0,0-3.65,4.87,25.36,25.36,0,0,0-1.78,7Z" transform="translate(-227.27 -324.88)"/><path d="M1022.47,415.92V405.71l8.17-1.75V364.8l-9-1.75V352.78h24.91l.65,7.82.11,1.4a19.82,19.82,0,0,1,5.78-7.76,13.17,13.17,0,0,1,8.23-2.63,23.88,23.88,0,0,1,3.32.26,24.61,24.61,0,0,1,3.21.67l-1.81,15.7-8.46-.47a10.08,10.08,0,0,0-5.86,1.23,13.36,13.36,0,0,0-4,4V404l8.17,1.75v10.21Z" transform="translate(-227.27 -324.88)"/></svg>